<svg xmlns="http://www.w3.org/2000/svg" viewBox="0 0 1366 768"><style>.st8{fill:#d320a1}.st9{fill:#7c0f62}.st10{fill:#9e1578}.st11{fill:#fffdff}.st12{fill:#f2b0a7}.st14{fill:#fff}.st15{fill:#f781d6}.st17{fill:#c62699}.st18{fill:#e56ec9}</style><g id="Layer_2"><path fill="#e535ab" d="M0 0h1366v768H0z"/><path id="Fill-1_6_" class="st17" d="M1016.2 720.8c0 5.4-149.2 9.8-333.2 9.8s-333.2-4.4-333.2-9.8S499 711 683 711s333.2 4.4 333.2 9.8"/><path id="Fill-1_5_" class="st17" d="M553 694.5c0 2.5-25.8 4.5-57.6 4.5s-57.6-2-57.6-4.5 25.8-4.5 57.6-4.5 57.6 2 57.6 4.5"/><path id="Fill-1_4_" class="st17" d="M930 694.5c0 2.5-25.8 4.5-57.6 4.5s-57.6-2-57.6-4.5 25.8-4.5 57.6-4.5 57.6 2 57.6 4.5"/><path id="Fill-1-Copy_1_" class="st17" d="M1265.4 718.5c0 3-34.7 5.5-77.4 5.5s-77.4-2.4-77.4-5.5c0-3 34.7-5.5 77.4-5.5s77.4 2.4 77.4 5.5"/><path id="Fill-4_2_" class="st10" d="M869.9 677l3.7 16.3h-6.8l-7-16.3z"/><path id="Fill-5_2_" class="st10" d="M494.2 677l-3.6 16.3h6.8l7-16.3z"/><path id="Fill-6_2_" class="st10" d="M483.8 677.8h395.8v-18.9H487.4z"/><path id="Fill-27_2_" class="st10" d="M465.6 662.7l-13.5 61.7h12.2l26.1-61.7z"/><path id="Fill-29_2_" class="st10" d="M898.1 662.7l13.6 61.7h-12.3l-26.1-61.7z"/><path id="Fill-7_2_" class="st8" d="M443.4 649.3c1.4 4.9 6.1 13.4 15.7 13.4h442c11.1 0 17.2-8.1 17.2-13.4H443.4z"/><path id="Fill-9_2_" class="st8" d="M443.4 649.3h474.9l-18.7-25.2-435.2-3.1z"/><path id="Fill-11_2_" class="st8" d="M927 503.1c3.4-37.9-19.8-62.7-53.7-62.7H499.6c-44.3 0-59.9 30.6-62.5 62.7s-10.9 68.3 46.7 78.1c57.7 9.9 380.5 12.1 410.1 0 29.6-12.1 30.7-51.6 33.1-78.1"/><path id="Fill-13_2_" class="st17" d="M459.9 520c1.8-38.1 11.6-60.1 38.2-60.1h368.3c22.1 0 46.7 15.5 38.9 60.1s-7.6 49.1-32.7 55.9c-25 6.8-367.1 0-382.9 0s-27.7-6.1-29.8-18.2c-2-12.1 0-37.7 0-37.7"/><path id="Fill-15_2_" class="st10" d="M405.7 511.5c1.6-10.1 8.7-14.4 21.6-16.6 8.9-1.5 27.1-1.7 34.3 3.3s10.5 35.4 16.1 57c-6.1 11.1-11.6 63.6-11.6 63.6l-22.7 30.4c0 .1-47.6-55.8-37.7-137.7"/><path id="Fill-17_2_" class="st10" d="M956 511.5c-1.6-10.1-8.7-14.4-21.6-16.6-8.9-1.5-27.1-1.7-34.3 3.3s-10.5 35.4-16.1 57c6.1 11.1 11.6 63.6 11.6 63.6l22.7 30.4c0 .1 47.6-55.8 37.7-137.7"/><path id="Fill-19_2_" class="st8" d="M429.4 494.6l-2.1.3c-12.9 2.2-20 6.5-21.6 16.6-10 81.9 37.6 137.8 37.6 137.8l15.6-21c-16-18.6-36-87.6-29.5-133.7"/><path id="Fill-21_2_" class="st8" d="M956 511.5c-1.6-10-8.6-14.3-21.2-16.5 3.8 41.1-15.9 114.2-32.1 133.3l15.7 21c-.1 0 47.5-55.9 37.6-137.8"/><path id="Fill-23_2_" class="st17" d="M429.1 508.1c6.6-.7 25.5-5.8 34.2-8.2-.5-.7-1.1-1.3-1.6-1.7-7.2-5-25.4-4.8-34.3-3.3-11 1.9-17.7 5.3-20.5 12.6 6.8 1.1 17.5 1.1 22.2.6"/><path id="Fill-25_2_" class="st17" d="M954.9 507.5c-2.7-7.2-9.5-10.7-20.5-12.6-8.9-1.5-27.1-1.7-34.3 3.3-.6.4-1.1 1-1.6 1.7 8.7 2.4 27.7 7.5 34.2 8.2 4.6.5 15.3.5 22.2-.6"/><path id="Fill-31_2_" class="st8" d="M457.3 580.7c-4.3 2.9-7.4 4.3-9.1 9.3-1.7 5.1 1.7 20.2 5.2 27.4 3.5 7.2 10.4 8 20.3 8h426.4c9.9 0 13.9-8.9 14.5-17.3.6-8.4.8-17.5-.4-21.4-1.3-3.9-5.3-7.2-9.1-8.8s-40.5-10.8-63.1-10.8H495.8c-7.8.1-19 1.8-38.5 13.6"/><path id="Fill-33_2_" class="st17" d="M448.5 589.5c-.1.2-.2.4-.2.6-1.7 5.8 1.7 23.1 5.2 31.3s10.5 9.2 20.3 9.2h427.1c9.9 0 13.9-10.1 14.5-19.8.5-7.9.7-16.2.1-21.4h-467v.1z"/><path id="Fill-61_2_" class="st15" d="M546.1 572.4l-60.1 2.4c-11.1.4-20.4-8.2-20.9-19.3l-2.1-52.9c-.4-11.1 8.2-20.4 19.3-20.9l60.1-2.4c11.1-.4 20.4 8.2 20.9 19.3l2.1 52.9c.4 11.1-8.3 20.4-19.3 20.9"/><path id="Combined-Shape_7_" class="st18" d="M491.4 506.3c.4 2.4-1.2 4.8-3.6 5.2-2.4.4-4.8-1.2-5.2-3.6-.4-2.4 1.2-4.8 3.6-5.2 2.4-.5 4.8 1.1 5.2 3.6zm46.6-3.7c.4 2.4-1.2 4.8-3.6 5.2-2.4.4-4.8-1.2-5.2-3.6-.4-2.4 1.2-4.8 3.6-5.2 2.5-.5 4.8 1.2 5.2 3.6zm-42.9 43.2c.4 2.4-1.2 4.8-3.6 5.2-2.4.4-4.8-1.2-5.2-3.6-.4-2.4 1.2-4.8 3.6-5.2 2.4-.5 4.7 1.2 5.2 3.6zm46.6-3.7c.4 2.4-1.2 4.8-3.6 5.2s-4.8-1.2-5.2-3.6c-.4-2.4 1.2-4.8 3.6-5.2 2.4-.4 4.8 1.2 5.2 3.6z"/><path id="Fill-71_2_" class="st15" d="M872.6 578.8l-59.8-8.8c-11-1.6-18.7-11.9-17.1-22.9l7.7-52.6c1.6-11 11.9-18.7 22.9-17.1l59.8 8.8c11 1.6 18.7 11.9 17.1 22.9l-7.7 52.6c-1.6 11.1-11.9 18.7-22.9 17.1"/><path id="Combined-Shape_6_" class="st18" d="M830.8 503.3c0 2.5-2.1 4.5-4.6 4.5s-4.5-2.1-4.5-4.6 2.1-4.5 4.6-4.5c2.5.1 4.5 2.1 4.5 4.6zm46.7 5.1c0 2.5-2.1 4.5-4.6 4.5s-4.5-2.1-4.5-4.6 2.1-4.5 4.6-4.5c2.6 0 4.6 2.1 4.5 4.6zm-50.4 34.7c0 2.5-2.1 4.5-4.6 4.5s-4.5-2.1-4.5-4.6 2.1-4.5 4.6-4.5 4.5 2.1 4.5 4.6zm46.7 5c0 2.5-2.1 4.5-4.6 4.5s-4.5-2.1-4.5-4.6 2.1-4.5 4.6-4.5c2.6.1 4.6 2.1 4.5 4.6z"/><path id="Fill-81_2_" class="st17" d="M1189 687.9s50.8-95.4-18.5-144.8c0 0-49.7 58.1-24.8 118.9l43.3 25.9z"/><path id="Fill-96_2_" class="st8" d="M1171.2 669.5s5.3-108 90.2-114.8c0 0 12.9 75.4-39.6 114.8h-50.6z"/><path id="Fill-93_2_" class="st17" d="M1134.1 716.7h112.6v-63.2h-112.6z"/><path id="Fill-108_2_" class="st15" d="M1231.1 233.2c0 11.1-9 20-20.1 20-11.1 0-20.1-9-20.1-20 0-11.1 9-20 20.1-20 11.1 0 20.1 9 20.1 20"/><path id="Fill-109_2_" class="st17" d="M1215.9 170.3V-33.2h-9.9v203.5c-38.7 2.5-69.3 34.7-69.3 74h148.5c0-39.3-30.5-71.4-69.3-74"/><path fill="none" stroke="#9e1578" stroke-width="2" d="M283.8 344.5l44.1-42.3 40.3 42.3"/><path id="Rectangle_4_" fill="#c62699" stroke="#9e1578" stroke-width="5" d="M264.3 329.5h127v127h-127z"/><path class="st15" d="M364.1 404.1c-.7-.4-1.4-.7-2.1-.9v-21.5c.8-.2 1.5-.5 2.2-.9 3.9-2.2 5.2-7.2 3-11-2.2-3.9-7.2-5.2-11-3-.7.4-1.3.9-1.8 1.5l-18.6-10.8c.2-.7.3-1.5.3-2.3 0-4.5-3.6-8.1-8.1-8.1s-8.1 3.6-8.1 8.1c0 .8.1 1.6.3 2.3l-18.6 10.8c-.5-.6-1.2-1.1-1.8-1.4-3.9-2.2-8.8-.9-11 3s-.9 8.8 3 11c.7.4 1.4.7 2.2.9v21.5c-.7.2-1.5.5-2.1.9-3.9 2.2-5.2 7.2-3 11 2.2 3.9 7.2 5.2 11 3 .7-.4 1.3-.9 1.8-1.4l18.6 10.8c-.2.7-.3 1.5-.3 2.3 0 4.5 3.6 8.1 8.1 8.1s8.1-3.6 8.1-8.1c0-.9-.1-1.7-.4-2.5l18.5-10.7c.6.6 1.2 1.2 2 1.6 3.9 2.2 8.8.9 11-3 2-4.1.7-9-3.2-11.2zm-66.2-.8c-.1 0-.2-.1-.3-.1v-21.6c2.1-.5 3.9-1.8 5-3.8 1.1-1.9 1.4-4.2.8-6.3l18.7-10.8.2.2-24.4 42.4zm35.9 20.9c-1.5-1.7-3.7-2.6-6-2.6-2.2 0-4.3.9-5.8 2.5l-18.7-10.8c0-.1.1-.2.1-.3h48.8c0 .2.1.4.1.5l-18.5 10.7zm19.3-17.2c-.4.7-.7 1.4-.9 2.1h-48.8c-.2-.7-.5-1.5-.9-2.1-.4-.7-.9-1.3-1.4-1.8l24.4-42.3c.7.2 1.5.3 2.3.3s1.5-.1 2.3-.3l24.4 42.3c-.6.5-1 1.1-1.4 1.8zm5-3.8c-.1 0-.2.1-.3.1L333.4 361l.2-.2 18.7 10.8c-.6 2.1-.3 4.4.8 6.2 1.1 2 3 3.3 5 3.8v21.6z"/><circle cx="327.8" cy="303.2" r="3" fill="#f781d6" stroke="#9e1578" stroke-width="2"/><path class="st8" d="M715.5 717.1h76.3v4.9h-76.3z"/><path class="st9" d="M672.4 579.2v-43.1s96 1.2 120.7 40.6l-120.7 2.5z"/><path class="st9" d="M736.4 675.3h16l40.6-98.5-19.7-11.1-18.8 11.9z"/><path class="st10" d="M751.6 686.4h-16.9c-2.5 0-4.5-2-4.5-4.5v-2.1c0-2.5 2-4.5 4.5-4.5h16.9c2.5 0 4.5 2 4.5 4.5v2.1c0 2.4-2 4.5-4.5 4.5zm-11.5 16s50.5 1.2 51.7 14.8h-76.3s1.2-14.8 8.6-14.8h16z"/><path class="st11" d="M740.1 702.4l8.3-16h-15.7l-7.4 16s3.7 8.6 14.8 0z"/><path class="st8" d="M751.8 709.7H774c1.8 0 3.5-.9 4.5-2.3-10.3-3-24-4.3-31.9-4.8-.1.5-.2 1-.2 1.5-.2 3.2 2.3 5.6 5.4 5.6z"/><path class="st12" d="M693.3 395.1l4.9 30.2-24.6 13.6-18.5-8.6 2.5-30.8z"/><path class="st8" d="M565.2 717.1h76.3v4.9h-76.3z"/><path class="st9" d="M684.7 579.2v-43.1s-103.9 1.2-130.5 40.6l130.5 2.5z"/><path class="st9" d="M620.7 675.3h-16.4l-50.1-98.5 23.1-11.1 22 11.9z"/><path class="st10" d="M605.5 686.4h16.9c2.5 0 4.5-2 4.5-4.5v-2.1c0-2.5-2-4.5-4.5-4.5h-16.9c-2.5 0-4.5 2-4.5 4.5v2.1c0 2.4 2 4.5 4.5 4.5zm11.5 16s-50.5 1.2-51.7 14.8h76.3s-1.2-14.8-8.6-14.8h-16z"/><path class="st11" d="M617 702.4l-8.3-16h15.7l7.4 16c-.1 0-3.8 8.6-14.8 0z"/><path class="st8" d="M605.3 709.7h-22.2c-1.8 0-3.5-.9-4.5-2.3 10.3-3 24-4.3 31.9-4.8.1.5.2 1 .2 1.5.1 3.2-2.4 5.6-5.4 5.6z"/><path d="M652.7 392.1l7.7 21c.5 1.5 1.9 2.4 3.5 2.4h18.4c1.5 0 2.8-.9 3.4-2.3l8.9-21.1s13.5 2.5 12.3-20.9c0 0 0-4.9-4.9-3.7l4.9-17.2-11.1-7.4-23.4-8.6-27.1 12.3-1.2 22.2s-11.1-2.5-1.2 18.5c-.1-.1 4.8 6 9.8 4.8z" fill="#f9cec3"/><path class="st9" d="M652 380.4v-24.6h35.8l-5-5h13.6v27.1h3.7l8.6-28.3-13.6-7.4 16-4.9-38.1-9.9-35.7 13.6 9.8 39.4z"/><path class="st14" d="M730.2 456.1l-14.8 38.2v46l-78.2.1L633 466l2.5-34.5 18.5-4.9s23.4 18.5 44.3-4.9h23.4l8.5 34.4z"/><path class="st14" d="M774.6 443.8l33.2-9.8s2.5-9.8-9.8-12.3h-99.7l32 34.5 44.3-12.4z"/><path class="st14" d="M781.9 468.4l-11-39.4s16-6.2 32-2.5l4.9 7.4-9.8 34.5h-16.1zM639 530l-6-64 11.1-18.5-8.6-16s-16-1.2-18.5 9.8c0 0-14.8 38.2-9.8 46.8l16 40.6L639 530z"/><path class="st12" d="M781.9 468.4s-4.9 11.1-17.2 18.5c0 0-3.7 12.3 11.1 1.2 0 0 0 28.3 17.2 24.6 0 0 16 1.2 8.6-19.7 0 0 7.4-13.5-3.7-24.6h-16z"/><path class="st10" d="M611 481h123v73H611z"/><circle class="st15" cx="672.5" cy="518.5" r="8.5"/><path id="Fill-1_7_" class="st17" d="M406 718.5c0 2.5-35 4.5-78.1 4.5s-78.1-2-78.1-4.5 35-4.5 78.1-4.5 78.1 2 78.1 4.5"/><path class="st17" d="M396.7 549.2h-62.9L322.4 502h-33l6.1 30.5-15.5 16.6h-26v30.7h11.8V719H280v-33h93.2v33h14.2V579.8h9.4v-30.6zm-99.4-7.5l1.5 7.4h-7.1l5.6-7.4zm66.4 133.7v-18.9h-18.9v18.9h-9.1v-20h-19.6v20h-36.2v-42.5h93.2v42.5h-9.4zm9.4-53.1h-25.9v-22.4h-18.9v22.4h-3.5V594h-28.3v28.3H280v-42.5h93.2v42.5z"/><path class="st10" d="M302.7 544.5l-7.6-37.8h23.6l9.1 37.8z"/></g></svg>